<svg xmlns="http://www.w3.org/2000/svg" viewBox="0 0 600 600">
  <defs>
    <linearGradient id="bg" x1="0" x2="1" y1="0" y2="1">
      <stop offset="0%" stop-color="#f6f3d5" />
      <stop offset="100%" stop-color="#c1b38f" />
    </linearGradient>
  </defs>
  <rect width="600" height="600" fill="url(#bg)" rx="40" ry="40" />
  <g opacity="0.95">
    <rect x="30" y="30" width="540" height="540" fill="#8a6c3d" rx="30" ry="30" />
    <g fill="#e2c58b">
      <path d="M30 30h540v60H30z" />
      <path d="M30 120h540v60H30z" />
      <path d="M30 210h540v60H30z" />
      <path d="M30 300h540v60H30z" />
      <path d="M30 390h540v60H30z" />
      <path d="M30 480h540v60H30z" />
      <path d="M30 570h540v60H30z" />
    </g>
    <g transform="translate(30 30)">
      <g fill="#3f3020">
        <rect x="0" y="0" width="67.5" height="67.5" />
        <rect x="135" y="0" width="67.5" height="67.5" />
        <rect x="270" y="0" width="67.5" height="67.5" />
        <rect x="405" y="0" width="67.5" height="67.5" />
        <rect x="540" y="0" width="67.5" height="67.5" />
        <rect x="67.5" y="67.5" width="67.5" height="67.5" />
        <rect x="202.5" y="67.5" width="67.5" height="67.5" />
        <rect x="337.5" y="67.5" width="67.5" height="67.5" />
        <rect x="472.5" y="67.5" width="67.5" height="67.5" />
      </g>
    </g>
    <g>
      <circle cx="180" cy="180" r="40" fill="#ffffff" stroke="#c1a65d" stroke-width="10" />
      <circle cx="420" cy="180" r="40" fill="#231f20" stroke="#7d6b53" stroke-width="10" />
      <circle cx="180" cy="420" r="40" fill="#231f20" stroke="#7d6b53" stroke-width="10" />
      <circle cx="420" cy="420" r="40" fill="#ffffff" stroke="#c1a65d" stroke-width="10" />
    </g>
  </g>
</svg>